<mxfile host="app.diagrams.net" agent="Mozilla/5.0 (Windows NT 10.0; Win64; x64) AppleWebKit/537.36 (KHTML, like Gecko) Chrome/131.0.0.0 Safari/537.36 Edg/131.0.0.0" version="25.0.1">
  <diagram name="Page-1" id="df3dSbGQza155_L6ca05">
    <mxGraphModel dx="1042" dy="614" grid="1" gridSize="10" guides="1" tooltips="1" connect="1" arrows="1" fold="1" page="1" pageScale="1" pageWidth="850" pageHeight="1100" math="0" shadow="0">
      <root>
        <mxCell id="0" />
        <mxCell id="1" parent="0" />
        <mxCell id="J3lzm-O1Rp_wIBKk0r_1-3" style="edgeStyle=orthogonalEdgeStyle;rounded=0;orthogonalLoop=1;jettySize=auto;html=1;exitX=1;exitY=0.5;exitDx=0;exitDy=0;entryX=0;entryY=0.5;entryDx=0;entryDy=0;" edge="1" parent="1" source="J3lzm-O1Rp_wIBKk0r_1-1" target="J3lzm-O1Rp_wIBKk0r_1-2">
          <mxGeometry relative="1" as="geometry" />
        </mxCell>
        <mxCell id="J3lzm-O1Rp_wIBKk0r_1-1" value="Mulai" style="ellipse;whiteSpace=wrap;html=1;" vertex="1" parent="1">
          <mxGeometry x="60" y="60" width="120" height="80" as="geometry" />
        </mxCell>
        <mxCell id="J3lzm-O1Rp_wIBKk0r_1-16" style="edgeStyle=orthogonalEdgeStyle;rounded=0;orthogonalLoop=1;jettySize=auto;html=1;exitX=1;exitY=0.5;exitDx=0;exitDy=0;entryX=0;entryY=0.5;entryDx=0;entryDy=0;" edge="1" parent="1" source="J3lzm-O1Rp_wIBKk0r_1-2" target="J3lzm-O1Rp_wIBKk0r_1-14">
          <mxGeometry relative="1" as="geometry" />
        </mxCell>
        <mxCell id="J3lzm-O1Rp_wIBKk0r_1-2" value="Input Number" style="shape=parallelogram;perimeter=parallelogramPerimeter;whiteSpace=wrap;html=1;fixedSize=1;" vertex="1" parent="1">
          <mxGeometry x="250" y="70" width="120" height="60" as="geometry" />
        </mxCell>
        <mxCell id="J3lzm-O1Rp_wIBKk0r_1-18" style="edgeStyle=orthogonalEdgeStyle;rounded=0;orthogonalLoop=1;jettySize=auto;html=1;exitX=0.5;exitY=1;exitDx=0;exitDy=0;entryX=0.5;entryY=0;entryDx=0;entryDy=0;" edge="1" parent="1" source="J3lzm-O1Rp_wIBKk0r_1-14" target="J3lzm-O1Rp_wIBKk0r_1-17">
          <mxGeometry relative="1" as="geometry" />
        </mxCell>
        <mxCell id="J3lzm-O1Rp_wIBKk0r_1-14" value="strNumber = Number to string" style="rounded=1;whiteSpace=wrap;html=1;" vertex="1" parent="1">
          <mxGeometry x="425" y="70" width="120" height="60" as="geometry" />
        </mxCell>
        <mxCell id="J3lzm-O1Rp_wIBKk0r_1-20" style="edgeStyle=orthogonalEdgeStyle;rounded=0;orthogonalLoop=1;jettySize=auto;html=1;exitX=0.5;exitY=1;exitDx=0;exitDy=0;entryX=0.5;entryY=0;entryDx=0;entryDy=0;" edge="1" parent="1" source="J3lzm-O1Rp_wIBKk0r_1-17" target="J3lzm-O1Rp_wIBKk0r_1-19">
          <mxGeometry relative="1" as="geometry" />
        </mxCell>
        <mxCell id="J3lzm-O1Rp_wIBKk0r_1-17" value="groupNumber = pisahkan strNumber bersarkan 0 dan jadikan array" style="rounded=1;whiteSpace=wrap;html=1;" vertex="1" parent="1">
          <mxGeometry x="422.5" y="200" width="125" height="70" as="geometry" />
        </mxCell>
        <mxCell id="J3lzm-O1Rp_wIBKk0r_1-22" style="edgeStyle=orthogonalEdgeStyle;rounded=0;orthogonalLoop=1;jettySize=auto;html=1;exitX=0.5;exitY=1;exitDx=0;exitDy=0;entryX=0.5;entryY=0;entryDx=0;entryDy=0;" edge="1" parent="1" source="J3lzm-O1Rp_wIBKk0r_1-19" target="J3lzm-O1Rp_wIBKk0r_1-21">
          <mxGeometry relative="1" as="geometry" />
        </mxCell>
        <mxCell id="J3lzm-O1Rp_wIBKk0r_1-19" value="lakukan perulangan groupNumber kemudian pisahkan element kemudian urutkan dan gabungkan kembali element" style="rounded=1;whiteSpace=wrap;html=1;" vertex="1" parent="1">
          <mxGeometry x="397.5" y="350" width="175" height="110" as="geometry" />
        </mxCell>
        <mxCell id="J3lzm-O1Rp_wIBKk0r_1-24" style="edgeStyle=orthogonalEdgeStyle;rounded=0;orthogonalLoop=1;jettySize=auto;html=1;exitX=0.5;exitY=1;exitDx=0;exitDy=0;entryX=0.5;entryY=0;entryDx=0;entryDy=0;" edge="1" parent="1" source="J3lzm-O1Rp_wIBKk0r_1-21" target="J3lzm-O1Rp_wIBKk0r_1-23">
          <mxGeometry relative="1" as="geometry" />
        </mxCell>
        <mxCell id="J3lzm-O1Rp_wIBKk0r_1-21" value="result = groupNumber to string" style="rounded=1;whiteSpace=wrap;html=1;" vertex="1" parent="1">
          <mxGeometry x="421.25" y="540" width="127.5" height="70" as="geometry" />
        </mxCell>
        <mxCell id="J3lzm-O1Rp_wIBKk0r_1-26" style="edgeStyle=orthogonalEdgeStyle;rounded=0;orthogonalLoop=1;jettySize=auto;html=1;exitX=0.5;exitY=1;exitDx=0;exitDy=0;entryX=0.5;entryY=0;entryDx=0;entryDy=0;" edge="1" parent="1" source="J3lzm-O1Rp_wIBKk0r_1-23" target="J3lzm-O1Rp_wIBKk0r_1-25">
          <mxGeometry relative="1" as="geometry" />
        </mxCell>
        <mxCell id="J3lzm-O1Rp_wIBKk0r_1-23" value="result to integer" style="rounded=1;whiteSpace=wrap;html=1;" vertex="1" parent="1">
          <mxGeometry x="421.25" y="670" width="128.75" height="70" as="geometry" />
        </mxCell>
        <mxCell id="J3lzm-O1Rp_wIBKk0r_1-28" style="edgeStyle=orthogonalEdgeStyle;rounded=0;orthogonalLoop=1;jettySize=auto;html=1;exitX=0.5;exitY=1;exitDx=0;exitDy=0;entryX=0.5;entryY=0;entryDx=0;entryDy=0;" edge="1" parent="1" source="J3lzm-O1Rp_wIBKk0r_1-25" target="J3lzm-O1Rp_wIBKk0r_1-27">
          <mxGeometry relative="1" as="geometry" />
        </mxCell>
        <mxCell id="J3lzm-O1Rp_wIBKk0r_1-25" value="result" style="shape=parallelogram;perimeter=parallelogramPerimeter;whiteSpace=wrap;html=1;fixedSize=1;" vertex="1" parent="1">
          <mxGeometry x="420.63" y="820" width="128.75" height="70" as="geometry" />
        </mxCell>
        <mxCell id="J3lzm-O1Rp_wIBKk0r_1-27" value="End" style="ellipse;whiteSpace=wrap;html=1;" vertex="1" parent="1">
          <mxGeometry x="425.62" y="960" width="120" height="80" as="geometry" />
        </mxCell>
      </root>
    </mxGraphModel>
  </diagram>
</mxfile>
